<svg width="191" height="46" viewBox="0 0 191 46" fill="none" xmlns="http://www.w3.org/2000/svg">
<g filter="url(#filter0_d_23_220)">
<path d="M29 16.5C29 23.4036 23.4036 29 16.5 29C9.59644 29 4 23.4036 4 16.5C4 9.59644 9.59644 4 16.5 4C23.4036 4 29 9.59644 29 16.5Z" fill="black"/>
<path d="M28.5 16.5C28.5 23.1274 23.1274 28.5 16.5 28.5C9.87258 28.5 4.5 23.1274 4.5 16.5C4.5 9.87258 9.87258 4.5 16.5 4.5C23.1274 4.5 28.5 9.87258 28.5 16.5Z" stroke="white"/>
</g>
<g filter="url(#filter1_d_23_220)">
<circle cx="25" cy="34" r="4" fill="black"/>
<circle cx="25" cy="34" r="3.5" stroke="white"/>
</g>
<line x1="27.3451" y1="26.6903" x2="18.0937" y2="31.2083" stroke="white"/>
<path d="M38.968 23.216C37.816 23.216 36.848 22.936 36.064 22.376C35.28 21.816 34.744 21.024 34.456 20L34.84 19.952V27.92H32.92V10.76H34.72V13.616L34.456 13.544C34.76 12.6 35.336 11.864 36.184 11.336C37.032 10.792 38.016 10.52 39.136 10.52C40.224 10.52 41.168 10.784 41.968 11.312C42.784 11.84 43.416 12.576 43.864 13.52C44.312 14.464 44.536 15.568 44.536 16.832C44.536 18.112 44.304 19.232 43.84 20.192C43.376 21.152 42.728 21.896 41.896 22.424C41.064 22.952 40.088 23.216 38.968 23.216ZM38.68 21.536C39.896 21.536 40.848 21.12 41.536 20.288C42.224 19.44 42.568 18.288 42.568 16.832C42.568 15.392 42.224 14.264 41.536 13.448C40.848 12.616 39.896 12.2 38.68 12.2C37.464 12.2 36.504 12.624 35.8 13.472C35.096 14.304 34.744 15.448 34.744 16.904C34.744 18.328 35.096 19.456 35.8 20.288C36.504 21.12 37.464 21.536 38.68 21.536ZM52.4907 23.24C51.3227 23.24 50.2907 22.968 49.3947 22.424C48.4987 21.864 47.7947 21.104 47.2827 20.144C46.7707 19.184 46.5147 18.08 46.5147 16.832C46.5147 15.584 46.7627 14.488 47.2587 13.544C47.7707 12.584 48.4827 11.84 49.3947 11.312C50.3067 10.784 51.3547 10.52 52.5387 10.52C53.6747 10.52 54.6587 10.768 55.4907 11.264C56.3387 11.76 56.9867 12.456 57.4347 13.352C57.8987 14.248 58.1307 15.304 58.1307 16.52C58.1307 16.68 58.1227 16.832 58.1067 16.976C58.1067 17.12 58.0907 17.28 58.0587 17.456H47.9547V15.848H56.8827L56.2587 16.736C56.2587 15.264 55.9307 14.136 55.2747 13.352C54.6347 12.552 53.7227 12.152 52.5387 12.152C51.3227 12.152 50.3387 12.576 49.5867 13.424C48.8507 14.256 48.4827 15.384 48.4827 16.808C48.4827 18.264 48.8507 19.432 49.5867 20.312C50.3387 21.176 51.3387 21.608 52.5867 21.608C53.3707 21.608 54.0587 21.44 54.6507 21.104C55.2427 20.752 55.6747 20.256 55.9467 19.616H57.7707C57.3707 20.736 56.6987 21.624 55.7547 22.28C54.8267 22.92 53.7387 23.24 52.4907 23.24ZM61.0216 23V10.76H62.8216V13.88H62.9416V23H61.0216ZM62.9416 16.616L62.6296 13.712C62.9176 12.672 63.4296 11.88 64.1656 11.336C64.9016 10.792 65.7496 10.52 66.7096 10.52C67.1096 10.52 67.3816 10.552 67.5256 10.616V12.464C67.4456 12.432 67.3336 12.416 67.1896 12.416C67.0456 12.4 66.8696 12.392 66.6616 12.392C65.4456 12.392 64.5176 12.76 63.8776 13.496C63.2536 14.216 62.9416 15.256 62.9416 16.616ZM77.182 23C77.118 22.728 77.07 22.416 77.038 22.064C77.022 21.712 77.014 21.264 77.014 20.72H76.894V14.864C76.894 13.936 76.678 13.256 76.246 12.824C75.83 12.376 75.15 12.152 74.206 12.152C73.278 12.152 72.534 12.344 71.974 12.728C71.43 13.096 71.126 13.624 71.062 14.312H69.214C69.294 13.128 69.79 12.2 70.702 11.528C71.614 10.856 72.806 10.52 74.278 10.52C75.798 10.52 76.926 10.88 77.662 11.6C78.398 12.32 78.766 13.4 78.766 14.84V20.72C78.766 21.072 78.79 21.44 78.838 21.824C78.886 22.192 78.95 22.584 79.03 23H77.182ZM72.982 23.24C71.718 23.24 70.71 22.936 69.958 22.328C69.222 21.704 68.854 20.856 68.854 19.784C68.854 18.712 69.222 17.88 69.958 17.288C70.694 16.696 71.766 16.28 73.174 16.04L77.446 15.32V16.904L73.462 17.528C72.566 17.672 71.886 17.912 71.422 18.248C70.958 18.584 70.726 19.072 70.726 19.712C70.726 20.336 70.934 20.808 71.35 21.128C71.782 21.448 72.414 21.608 73.246 21.608C74.318 21.608 75.19 21.368 75.862 20.888C76.55 20.392 76.894 19.752 76.894 18.968L77.206 20.672C76.95 21.488 76.446 22.12 75.694 22.568C74.958 23.016 74.054 23.24 72.982 23.24ZM82.4669 23V10.76H84.2669V13.64H84.3869V23H82.4669ZM91.2269 23V14.984C91.2269 14.056 90.9949 13.36 90.5309 12.896C90.0669 12.432 89.3789 12.2 88.4669 12.2C87.6669 12.2 86.9549 12.376 86.3309 12.728C85.7229 13.08 85.2429 13.568 84.8909 14.192C84.5549 14.816 84.3869 15.544 84.3869 16.376L84.0749 13.472C84.4909 12.56 85.1229 11.84 85.9709 11.312C86.8349 10.784 87.8109 10.52 88.8989 10.52C90.1789 10.52 91.2029 10.888 91.9709 11.624C92.7549 12.344 93.1469 13.296 93.1469 14.48V23H91.2269ZM105.738 23V20.144L105.978 20.216C105.674 21.144 105.114 21.88 104.298 22.424C103.498 22.968 102.538 23.24 101.418 23.24C100.314 23.24 99.3461 22.976 98.5141 22.448C97.6981 21.92 97.0581 21.184 96.5941 20.24C96.1461 19.296 95.9221 18.192 95.9221 16.928C95.9221 15.648 96.1541 14.528 96.6181 13.568C97.0821 12.608 97.7301 11.864 98.5621 11.336C99.3941 10.808 100.37 10.544 101.49 10.544C102.642 10.544 103.61 10.824 104.394 11.384C105.178 11.944 105.714 12.736 106.002 13.76L105.618 13.808V5.72H107.538V23H105.738ZM101.778 21.56C103.01 21.56 103.97 21.144 104.658 20.312C105.362 19.464 105.714 18.312 105.714 16.856C105.714 15.432 105.362 14.304 104.658 13.472C103.954 12.64 102.994 12.224 101.778 12.224C100.562 12.224 99.6101 12.64 98.9221 13.472C98.2341 14.304 97.8901 15.456 97.8901 16.928C97.8901 18.368 98.2341 19.504 98.9221 20.336C99.6101 21.152 100.562 21.56 101.778 21.56Z" fill="white"/>
<defs>
<filter id="filter0_d_23_220" x="0" y="4" width="33" height="33" filterUnits="userSpaceOnUse" color-interpolation-filters="sRGB">
<feFlood flood-opacity="0" result="BackgroundImageFix"/>
<feColorMatrix in="SourceAlpha" type="matrix" values="0 0 0 0 0 0 0 0 0 0 0 0 0 0 0 0 0 0 127 0" result="hardAlpha"/>
<feOffset dy="4"/>
<feGaussianBlur stdDeviation="2"/>
<feComposite in2="hardAlpha" operator="out"/>
<feColorMatrix type="matrix" values="0 0 0 0 0 0 0 0 0 0 0 0 0 0 0 0 0 0 0.25 0"/>
<feBlend mode="normal" in2="BackgroundImageFix" result="effect1_dropShadow_23_220"/>
<feBlend mode="normal" in="SourceGraphic" in2="effect1_dropShadow_23_220" result="shape"/>
</filter>
<filter id="filter1_d_23_220" x="17" y="30" width="16" height="16" filterUnits="userSpaceOnUse" color-interpolation-filters="sRGB">
<feFlood flood-opacity="0" result="BackgroundImageFix"/>
<feColorMatrix in="SourceAlpha" type="matrix" values="0 0 0 0 0 0 0 0 0 0 0 0 0 0 0 0 0 0 127 0" result="hardAlpha"/>
<feOffset dy="4"/>
<feGaussianBlur stdDeviation="2"/>
<feComposite in2="hardAlpha" operator="out"/>
<feColorMatrix type="matrix" values="0 0 0 0 0 0 0 0 0 0 0 0 0 0 0 0 0 0 0.25 0"/>
<feBlend mode="normal" in2="BackgroundImageFix" result="effect1_dropShadow_23_220"/>
<feBlend mode="normal" in="SourceGraphic" in2="effect1_dropShadow_23_220" result="shape"/>
</filter>
</defs>
</svg>
