<svg width="24" height="24" viewBox="0 0 24 24" fill="none" xmlns="http://www.w3.org/2000/svg">
<path d="M19.9386 9.75C19.8776 9.55 19.7736 9.379 19.6386 9.24C19.5336 9.127 19.3976 9.043 19.2446 9.002C19.3186 9.119 19.3856 9.254 19.4356 9.398C19.4916 9.545 19.5276 9.702 19.5386 9.865C19.5466 9.932 19.5506 10.003 19.5506 10.075C19.5506 10.147 19.5466 10.218 19.5386 10.289C19.5036 10.174 19.4556 10.081 19.3966 9.997C19.2736 9.831 19.1086 9.698 18.9166 9.614C18.7976 9.561 18.6686 9.532 18.5326 9.532C18.1866 9.532 17.8846 9.718 17.7216 9.996C17.6716 10.078 17.6316 10.167 17.6016 10.262C16.4196 8.294 14.2926 6.991 11.8606 6.991C11.7366 6.991 11.6136 6.994 11.4916 7.001C10.7286 7.002 9.97462 7.111 9.26062 7.314C9.19862 6.88 8.62862 6 6.00862 6L6.80862 8.51C6.30162 8.921 5.88162 9.415 5.56162 9.975L4.00862 10C4.00862 10 3.83862 14 5.00862 14H5.54862C5.92762 14.638 6.41662 15.171 6.99362 15.589L7.00862 17.999H8.08862C9.39862 17.999 10.0086 17.999 10.0086 17.249V16.859C10.4596 16.947 10.9786 16.998 11.5086 16.998C12.0386 16.998 12.5576 16.947 13.0596 16.851L13.0086 17.249C13.0086 17.999 13.6286 17.999 14.9486 17.999H16.0086V15.609C16.9406 14.958 17.6216 14.004 17.9116 12.892C17.9686 12.865 18.0256 12.868 18.0836 12.868C18.1416 12.868 18.1986 12.865 18.2556 12.858C18.5066 12.812 18.7356 12.714 18.9346 12.575C19.2006 12.387 19.4086 12.121 19.5256 11.81C19.5536 11.717 19.5746 11.619 19.5886 11.518L19.5896 11.508C19.8106 11.246 19.9616 10.918 20.0086 10.557C20.0206 10.473 20.0276 10.386 20.0276 10.298C20.0276 10.101 19.9956 9.912 19.9366 9.735L19.9386 9.75ZM7.51862 9.75C7.93262 9.75 8.26862 10.086 8.26862 10.5C8.26862 10.914 7.93262 11.25 7.51862 11.25C7.10462 11.25 6.76862 10.914 6.76862 10.5C6.76862 10.086 7.10462 9.75 7.51862 9.75ZM9.88862 9C9.84262 9.015 9.78962 9.024 9.73462 9.024C9.54062 9.024 9.37262 8.914 9.28962 8.753C9.27662 8.715 9.27062 8.675 9.27062 8.633C9.27062 8.443 9.40662 8.285 9.58562 8.25C10.1566 8.109 10.8096 8.029 11.4816 8.029C11.5196 8.029 11.5566 8.029 11.5946 8.03C11.6206 8.03 11.6586 8.029 11.6956 8.029C12.3676 8.029 13.0196 8.109 13.6446 8.261C13.7706 8.285 13.9066 8.443 13.9066 8.633C13.9066 8.675 13.8996 8.715 13.8876 8.752C13.8176 8.881 13.6906 8.975 13.5416 8.999H13.3886C12.8766 8.872 12.2876 8.799 11.6826 8.799C11.6666 8.799 11.6516 8.799 11.6356 8.799C11.6246 8.799 11.6096 8.799 11.5936 8.799C10.9886 8.799 10.4006 8.872 9.83762 9.01L9.88862 9ZM18.5886 11.93C18.4586 12.025 18.3036 12.095 18.1356 12.129L18.0086 12.14V12C18.0086 12 18.0086 11.79 18.0086 11.69C18.1736 11.815 18.3826 11.89 18.6086 11.89C18.6156 11.89 18.6226 11.89 18.6296 11.89L18.5886 11.93ZM18.6686 11.25C18.6506 11.253 18.6286 11.254 18.6076 11.254C18.4316 11.254 18.2806 11.151 18.2096 11.002C18.1656 10.918 18.1406 10.822 18.1406 10.719C18.1406 10.616 18.1656 10.52 18.2106 10.436C18.2696 10.354 18.3676 10.298 18.4796 10.298C18.5386 10.298 18.5926 10.313 18.6406 10.34C18.8216 10.41 18.9486 10.584 18.9486 10.788V10.789C18.9576 10.851 18.9626 10.922 18.9626 10.994C18.9626 11.066 18.9576 11.137 18.9476 11.207C18.8816 11.219 18.8036 11.231 18.7236 11.231C18.7046 11.231 18.6846 11.23 18.6656 11.229L18.6686 11.25Z" fill="white"/>
</svg>
